<mxfile host="Electron" agent="Mozilla/5.0 (Windows NT 10.0; Win64; x64) AppleWebKit/537.36 (KHTML, like Gecko) draw.io/28.2.5 Chrome/138.0.7204.251 Electron/37.6.1 Safari/537.36" version="28.2.5">
  <diagram name="Page-1" id="Rjs56oa8E6lROfocw9s7">
    <mxGraphModel dx="872" dy="537" grid="1" gridSize="10" guides="1" tooltips="1" connect="1" arrows="1" fold="1" page="1" pageScale="1" pageWidth="850" pageHeight="1100" math="0" shadow="0">
      <root>
        <mxCell id="0" />
        <mxCell id="1" parent="0" />
        <mxCell id="q35ilS_BpOk1AwKMbMjI-1" value="" style="rounded=0;whiteSpace=wrap;html=1;fillColor=none;" parent="1" vertex="1">
          <mxGeometry x="50" y="80" width="120" height="440" as="geometry" />
        </mxCell>
        <mxCell id="q35ilS_BpOk1AwKMbMjI-2" value="" style="image;aspect=fixed;html=1;points=[];align=center;fontSize=12;image=img/lib/azure2/general/Folder_Blank.svg;" parent="1" vertex="1">
          <mxGeometry x="85.36" y="170" width="49.29" height="40" as="geometry" />
        </mxCell>
        <mxCell id="q35ilS_BpOk1AwKMbMjI-3" value="" style="image;aspect=fixed;html=1;points=[];align=center;fontSize=12;image=img/lib/azure2/general/Folder_Blank.svg;" parent="1" vertex="1">
          <mxGeometry x="85.36" y="370" width="49.29" height="40" as="geometry" />
        </mxCell>
        <mxCell id="q35ilS_BpOk1AwKMbMjI-4" value="&lt;b&gt;CRM&lt;/b&gt;" style="rounded=0;whiteSpace=wrap;html=1;strokeColor=none;" parent="1" vertex="1">
          <mxGeometry x="90" y="220" width="40" height="20" as="geometry" />
        </mxCell>
        <mxCell id="q35ilS_BpOk1AwKMbMjI-7" value="&lt;b&gt;ERP&lt;/b&gt;" style="rounded=0;whiteSpace=wrap;html=1;strokeColor=none;" parent="1" vertex="1">
          <mxGeometry x="85.36" y="420" width="40" height="20" as="geometry" />
        </mxCell>
        <mxCell id="q35ilS_BpOk1AwKMbMjI-8" value="" style="rounded=0;whiteSpace=wrap;html=1;fillColor=default;strokeColor=light-dark(#fb9898, #996500);" parent="1" vertex="1">
          <mxGeometry x="240" y="120" width="120" height="400" as="geometry" />
        </mxCell>
        <mxCell id="q35ilS_BpOk1AwKMbMjI-9" value="&lt;font style=&quot;font-size: 15px;&quot;&gt;Sources&lt;/font&gt;" style="rounded=0;whiteSpace=wrap;html=1;fillColor=default;strokeColor=none;" parent="1" vertex="1">
          <mxGeometry x="70" y="60" width="80" height="30" as="geometry" />
        </mxCell>
        <mxCell id="q35ilS_BpOk1AwKMbMjI-10" value="&lt;font style=&quot;font-size: 15px;&quot;&gt;Bronze Layer&lt;/font&gt;" style="rounded=1;whiteSpace=wrap;html=1;fillColor=#ffe6cc;strokeColor=#d79b00;" parent="1" vertex="1">
          <mxGeometry x="240" y="80" width="120" height="30" as="geometry" />
        </mxCell>
        <mxCell id="L6gCs0YHcA-KTnDKjQG6-12" style="edgeStyle=orthogonalEdgeStyle;rounded=0;orthogonalLoop=1;jettySize=auto;html=1;entryX=0;entryY=0.5;entryDx=0;entryDy=0;" parent="1" source="q35ilS_BpOk1AwKMbMjI-11" target="L6gCs0YHcA-KTnDKjQG6-3" edge="1">
          <mxGeometry relative="1" as="geometry" />
        </mxCell>
        <mxCell id="q35ilS_BpOk1AwKMbMjI-11" value="crm_sales_details" style="rounded=1;whiteSpace=wrap;html=1;fillColor=#ffe6cc;strokeColor=#d79b00;" parent="1" vertex="1">
          <mxGeometry x="250" y="220" width="100" height="30" as="geometry" />
        </mxCell>
        <mxCell id="L6gCs0YHcA-KTnDKjQG6-10" style="edgeStyle=orthogonalEdgeStyle;rounded=0;orthogonalLoop=1;jettySize=auto;html=1;" parent="1" source="q35ilS_BpOk1AwKMbMjI-12" target="L6gCs0YHcA-KTnDKjQG6-4" edge="1">
          <mxGeometry relative="1" as="geometry" />
        </mxCell>
        <mxCell id="q35ilS_BpOk1AwKMbMjI-12" value="crm_prd_info" style="rounded=1;whiteSpace=wrap;html=1;fillColor=#ffe6cc;strokeColor=#d79b00;" parent="1" vertex="1">
          <mxGeometry x="250" y="180" width="100" height="30" as="geometry" />
        </mxCell>
        <mxCell id="L6gCs0YHcA-KTnDKjQG6-9" style="edgeStyle=orthogonalEdgeStyle;rounded=0;orthogonalLoop=1;jettySize=auto;html=1;entryX=0;entryY=0.5;entryDx=0;entryDy=0;" parent="1" source="q35ilS_BpOk1AwKMbMjI-13" target="L6gCs0YHcA-KTnDKjQG6-5" edge="1">
          <mxGeometry relative="1" as="geometry" />
        </mxCell>
        <mxCell id="q35ilS_BpOk1AwKMbMjI-13" value="crm_cust_info" style="rounded=1;whiteSpace=wrap;html=1;fillColor=#ffe6cc;strokeColor=#d79b00;" parent="1" vertex="1">
          <mxGeometry x="250" y="140" width="100" height="30" as="geometry" />
        </mxCell>
        <mxCell id="L6gCs0YHcA-KTnDKjQG6-13" style="edgeStyle=orthogonalEdgeStyle;rounded=0;orthogonalLoop=1;jettySize=auto;html=1;entryX=0;entryY=0.5;entryDx=0;entryDy=0;" parent="1" source="q35ilS_BpOk1AwKMbMjI-17" target="L6gCs0YHcA-KTnDKjQG6-6" edge="1">
          <mxGeometry relative="1" as="geometry" />
        </mxCell>
        <mxCell id="q35ilS_BpOk1AwKMbMjI-17" value="erp_cust_az12" style="rounded=1;whiteSpace=wrap;html=1;fillColor=#ffe6cc;strokeColor=#d79b00;" parent="1" vertex="1">
          <mxGeometry x="250" y="340" width="100" height="30" as="geometry" />
        </mxCell>
        <mxCell id="L6gCs0YHcA-KTnDKjQG6-14" style="edgeStyle=orthogonalEdgeStyle;rounded=0;orthogonalLoop=1;jettySize=auto;html=1;" parent="1" source="q35ilS_BpOk1AwKMbMjI-18" target="L6gCs0YHcA-KTnDKjQG6-7" edge="1">
          <mxGeometry relative="1" as="geometry" />
        </mxCell>
        <mxCell id="q35ilS_BpOk1AwKMbMjI-18" value="erp_loc_a101" style="rounded=1;whiteSpace=wrap;html=1;fillColor=#ffe6cc;strokeColor=#d79b00;" parent="1" vertex="1">
          <mxGeometry x="250" y="380" width="100" height="30" as="geometry" />
        </mxCell>
        <mxCell id="L6gCs0YHcA-KTnDKjQG6-16" style="edgeStyle=orthogonalEdgeStyle;rounded=0;orthogonalLoop=1;jettySize=auto;html=1;entryX=0;entryY=0.5;entryDx=0;entryDy=0;" parent="1" source="q35ilS_BpOk1AwKMbMjI-19" target="L6gCs0YHcA-KTnDKjQG6-8" edge="1">
          <mxGeometry relative="1" as="geometry" />
        </mxCell>
        <mxCell id="q35ilS_BpOk1AwKMbMjI-19" value="erp_px_cat_g1v2" style="rounded=1;whiteSpace=wrap;html=1;fillColor=#ffe6cc;strokeColor=#d79b00;" parent="1" vertex="1">
          <mxGeometry x="250" y="420" width="100" height="30" as="geometry" />
        </mxCell>
        <mxCell id="q35ilS_BpOk1AwKMbMjI-28" style="edgeStyle=orthogonalEdgeStyle;rounded=0;orthogonalLoop=1;jettySize=auto;html=1;entryX=-0.008;entryY=0.6;entryDx=0;entryDy=0;entryPerimeter=0;" parent="1" source="q35ilS_BpOk1AwKMbMjI-3" target="q35ilS_BpOk1AwKMbMjI-8" edge="1">
          <mxGeometry relative="1" as="geometry" />
        </mxCell>
        <mxCell id="q35ilS_BpOk1AwKMbMjI-29" style="edgeStyle=orthogonalEdgeStyle;rounded=0;orthogonalLoop=1;jettySize=auto;html=1;entryX=0.017;entryY=0.688;entryDx=0;entryDy=0;entryPerimeter=0;" parent="1" source="q35ilS_BpOk1AwKMbMjI-3" target="q35ilS_BpOk1AwKMbMjI-8" edge="1">
          <mxGeometry relative="1" as="geometry" />
        </mxCell>
        <mxCell id="q35ilS_BpOk1AwKMbMjI-30" style="edgeStyle=orthogonalEdgeStyle;rounded=0;orthogonalLoop=1;jettySize=auto;html=1;entryX=-0.033;entryY=0.788;entryDx=0;entryDy=0;entryPerimeter=0;" parent="1" source="q35ilS_BpOk1AwKMbMjI-3" target="q35ilS_BpOk1AwKMbMjI-8" edge="1">
          <mxGeometry relative="1" as="geometry" />
        </mxCell>
        <mxCell id="q35ilS_BpOk1AwKMbMjI-31" style="edgeStyle=orthogonalEdgeStyle;rounded=0;orthogonalLoop=1;jettySize=auto;html=1;entryX=-0.033;entryY=0.095;entryDx=0;entryDy=0;entryPerimeter=0;" parent="1" source="q35ilS_BpOk1AwKMbMjI-2" target="q35ilS_BpOk1AwKMbMjI-8" edge="1">
          <mxGeometry relative="1" as="geometry" />
        </mxCell>
        <mxCell id="q35ilS_BpOk1AwKMbMjI-32" style="edgeStyle=orthogonalEdgeStyle;rounded=0;orthogonalLoop=1;jettySize=auto;html=1;entryX=0.042;entryY=0.188;entryDx=0;entryDy=0;entryPerimeter=0;" parent="1" source="q35ilS_BpOk1AwKMbMjI-2" target="q35ilS_BpOk1AwKMbMjI-8" edge="1">
          <mxGeometry relative="1" as="geometry" />
        </mxCell>
        <mxCell id="q35ilS_BpOk1AwKMbMjI-33" style="edgeStyle=orthogonalEdgeStyle;rounded=0;orthogonalLoop=1;jettySize=auto;html=1;entryX=-0.025;entryY=0.288;entryDx=0;entryDy=0;entryPerimeter=0;" parent="1" source="q35ilS_BpOk1AwKMbMjI-2" target="q35ilS_BpOk1AwKMbMjI-8" edge="1">
          <mxGeometry relative="1" as="geometry" />
        </mxCell>
        <mxCell id="L6gCs0YHcA-KTnDKjQG6-1" value="" style="rounded=0;whiteSpace=wrap;html=1;fillColor=none;strokeColor=#666666;fontColor=#333333;" parent="1" vertex="1">
          <mxGeometry x="425" y="120" width="120" height="400" as="geometry" />
        </mxCell>
        <mxCell id="L6gCs0YHcA-KTnDKjQG6-2" value="&lt;span style=&quot;font-size: 15px;&quot;&gt;Silver Layer&lt;/span&gt;" style="rounded=1;whiteSpace=wrap;html=1;fillColor=#f5f5f5;strokeColor=#666666;fontColor=#333333;" parent="1" vertex="1">
          <mxGeometry x="425" y="80" width="120" height="30" as="geometry" />
        </mxCell>
        <mxCell id="L6gCs0YHcA-KTnDKjQG6-3" value="crm_sales_details" style="rounded=1;whiteSpace=wrap;html=1;fillColor=#f5f5f5;strokeColor=#666666;fontColor=#333333;" parent="1" vertex="1">
          <mxGeometry x="435" y="220" width="100" height="30" as="geometry" />
        </mxCell>
        <mxCell id="L6gCs0YHcA-KTnDKjQG6-4" value="crm_prd_info" style="rounded=1;whiteSpace=wrap;html=1;fillColor=#f5f5f5;strokeColor=#666666;fontColor=#333333;" parent="1" vertex="1">
          <mxGeometry x="435" y="180" width="100" height="30" as="geometry" />
        </mxCell>
        <mxCell id="L6gCs0YHcA-KTnDKjQG6-5" value="crm_cust_info" style="rounded=1;whiteSpace=wrap;html=1;fillColor=#f5f5f5;strokeColor=#666666;fontColor=#333333;" parent="1" vertex="1">
          <mxGeometry x="435" y="140" width="100" height="30" as="geometry" />
        </mxCell>
        <mxCell id="L6gCs0YHcA-KTnDKjQG6-6" value="erp_cust_az12" style="rounded=1;whiteSpace=wrap;html=1;fillColor=#f5f5f5;strokeColor=#666666;fontColor=#333333;" parent="1" vertex="1">
          <mxGeometry x="435" y="340" width="100" height="30" as="geometry" />
        </mxCell>
        <mxCell id="L6gCs0YHcA-KTnDKjQG6-7" value="erp_loc_a101" style="rounded=1;whiteSpace=wrap;html=1;fillColor=#f5f5f5;strokeColor=#666666;fontColor=#333333;" parent="1" vertex="1">
          <mxGeometry x="435" y="380" width="100" height="30" as="geometry" />
        </mxCell>
        <mxCell id="L6gCs0YHcA-KTnDKjQG6-8" value="erp_px_cat_g1v2" style="rounded=1;whiteSpace=wrap;html=1;fillColor=#f5f5f5;strokeColor=#666666;fontColor=#333333;" parent="1" vertex="1">
          <mxGeometry x="435" y="420" width="100" height="30" as="geometry" />
        </mxCell>
        <mxCell id="GeZwH2N1jPbB6wWAJvlC-1" value="&lt;b&gt;&lt;font style=&quot;font-size: 20px;&quot;&gt;Data Flow Diagram&lt;/font&gt;&lt;/b&gt;" style="rounded=1;whiteSpace=wrap;html=1;fillColor=none;strokeColor=none;" parent="1" vertex="1">
          <mxGeometry x="320" y="10" width="210" height="40" as="geometry" />
        </mxCell>
        <mxCell id="GeZwH2N1jPbB6wWAJvlC-2" value="" style="rounded=0;whiteSpace=wrap;html=1;fillColor=none;strokeColor=#d6b656;" parent="1" vertex="1">
          <mxGeometry x="620" y="120" width="120" height="400" as="geometry" />
        </mxCell>
        <mxCell id="GeZwH2N1jPbB6wWAJvlC-3" value="&lt;span style=&quot;font-size: 15px;&quot;&gt;Gold Layer&lt;/span&gt;" style="rounded=1;whiteSpace=wrap;html=1;fillColor=#fff2cc;strokeColor=#d6b656;" parent="1" vertex="1">
          <mxGeometry x="620" y="80" width="120" height="30" as="geometry" />
        </mxCell>
        <mxCell id="GeZwH2N1jPbB6wWAJvlC-10" value="dim_customers" style="rounded=1;whiteSpace=wrap;html=1;fillColor=#fff2cc;strokeColor=#d6b656;" parent="1" vertex="1">
          <mxGeometry x="633.75" y="270" width="92.5" height="30" as="geometry" />
        </mxCell>
        <mxCell id="GeZwH2N1jPbB6wWAJvlC-11" value="fact_sales" style="rounded=1;whiteSpace=wrap;html=1;fillColor=#fff2cc;strokeColor=#d6b656;" parent="1" vertex="1">
          <mxGeometry x="630" y="140" width="100" height="30" as="geometry" />
        </mxCell>
        <mxCell id="GeZwH2N1jPbB6wWAJvlC-12" value="dim_products" style="rounded=1;whiteSpace=wrap;html=1;fillColor=#fff2cc;strokeColor=#d6b656;" parent="1" vertex="1">
          <mxGeometry x="630" y="400" width="100" height="30" as="geometry" />
        </mxCell>
        <mxCell id="GeZwH2N1jPbB6wWAJvlC-13" value="" style="endArrow=classic;html=1;rounded=0;exitX=1;exitY=0.5;exitDx=0;exitDy=0;entryX=0;entryY=0.25;entryDx=0;entryDy=0;jumpStyle=gap;" parent="1" source="L6gCs0YHcA-KTnDKjQG6-5" target="GeZwH2N1jPbB6wWAJvlC-10" edge="1">
          <mxGeometry width="50" height="50" relative="1" as="geometry">
            <mxPoint x="550" y="180" as="sourcePoint" />
            <mxPoint x="600" y="130" as="targetPoint" />
            <Array as="points" />
          </mxGeometry>
        </mxCell>
        <mxCell id="GeZwH2N1jPbB6wWAJvlC-15" value="" style="endArrow=classic;html=1;rounded=0;exitX=1;exitY=0.5;exitDx=0;exitDy=0;entryX=0;entryY=0.5;entryDx=0;entryDy=0;jumpStyle=gap;" parent="1" target="GeZwH2N1jPbB6wWAJvlC-11" edge="1">
          <mxGeometry width="50" height="50" relative="1" as="geometry">
            <mxPoint x="535" y="240" as="sourcePoint" />
            <mxPoint x="634" y="283" as="targetPoint" />
            <Array as="points" />
          </mxGeometry>
        </mxCell>
        <mxCell id="GeZwH2N1jPbB6wWAJvlC-16" value="" style="endArrow=classic;html=1;rounded=0;exitX=1;exitY=0.5;exitDx=0;exitDy=0;entryX=0;entryY=0.75;entryDx=0;entryDy=0;jumpStyle=gap;" parent="1" target="GeZwH2N1jPbB6wWAJvlC-12" edge="1">
          <mxGeometry width="50" height="50" relative="1" as="geometry">
            <mxPoint x="534.75" y="440" as="sourcePoint" />
            <mxPoint x="633.75" y="483" as="targetPoint" />
            <Array as="points" />
          </mxGeometry>
        </mxCell>
        <mxCell id="GeZwH2N1jPbB6wWAJvlC-17" value="" style="endArrow=classic;html=1;rounded=0;exitX=1;exitY=0.5;exitDx=0;exitDy=0;entryX=0;entryY=0.5;entryDx=0;entryDy=0;jumpStyle=gap;" parent="1" target="GeZwH2N1jPbB6wWAJvlC-12" edge="1">
          <mxGeometry width="50" height="50" relative="1" as="geometry">
            <mxPoint x="534.75" y="197" as="sourcePoint" />
            <mxPoint x="633.75" y="240" as="targetPoint" />
            <Array as="points" />
          </mxGeometry>
        </mxCell>
        <mxCell id="GeZwH2N1jPbB6wWAJvlC-18" value="" style="endArrow=classic;html=1;rounded=0;exitX=1;exitY=0.5;exitDx=0;exitDy=0;entryX=0;entryY=0.5;entryDx=0;entryDy=0;jumpStyle=gap;" parent="1" target="GeZwH2N1jPbB6wWAJvlC-10" edge="1">
          <mxGeometry width="50" height="50" relative="1" as="geometry">
            <mxPoint x="535" y="400" as="sourcePoint" />
            <mxPoint x="634" y="443" as="targetPoint" />
            <Array as="points" />
          </mxGeometry>
        </mxCell>
        <mxCell id="GeZwH2N1jPbB6wWAJvlC-19" value="" style="endArrow=classic;html=1;rounded=0;exitX=1;exitY=0.5;exitDx=0;exitDy=0;entryX=0;entryY=0.75;entryDx=0;entryDy=0;jumpStyle=gap;" parent="1" target="GeZwH2N1jPbB6wWAJvlC-10" edge="1">
          <mxGeometry width="50" height="50" relative="1" as="geometry">
            <mxPoint x="530" y="357" as="sourcePoint" />
            <mxPoint x="565.25" y="250" as="targetPoint" />
            <Array as="points" />
          </mxGeometry>
        </mxCell>
      </root>
    </mxGraphModel>
  </diagram>
</mxfile>
